HIERARCHY
ROOT Hips
{
	OFFSET 0.000000 0.000000 0.000000
	CHANNELS 6 Xposition Yposition Zposition Xrotation Yrotation Zrotation
	JOINT LeftUpLeg_virtual
	{
		OFFSET 0.000000 0.000000 0.000000
		CHANNELS 3 Xrotation Yrotation Zrotation
		JOINT LeftUpLeg
		{
			OFFSET 13.026900 -6.336304 -1.092800
			CHANNELS 3 Xrotation Yrotation Zrotation
			JOINT LeftLeg
			{
				OFFSET 0.524474 -46.096886 9.782700
				CHANNELS 3 Xrotation Yrotation Zrotation
				JOINT LeftFoot
				{
					OFFSET -0.524474 -53.427422 -12.948200
					CHANNELS 3 Xrotation Yrotation Zrotation
					JOINT LeftToeBase
					{
						OFFSET 0.192200 -14.009700 16.364100
						CHANNELS 3 Xrotation Yrotation Zrotation
						JOINT LeftToe_End
						{
							OFFSET -1.784700 -0.561700 9.474800
							CHANNELS 3 Xrotation Yrotation Zrotation
							End Site
							{
								OFFSET 0 0 0
							}
						}
					}
				}
			}
		}
	}
	JOINT RightUpLeg_virtual
	{
		OFFSET 0.000000 0.000000 0.000000
		CHANNELS 3 Xrotation Yrotation Zrotation
		JOINT RightUpLeg
		{
			OFFSET -12.883000 -6.336304 -1.092800
			CHANNELS 3 Xrotation Yrotation Zrotation
			JOINT RightLeg
			{
				OFFSET -0.524587 -46.096825 9.782800
				CHANNELS 3 Xrotation Yrotation Zrotation
				JOINT RightFoot
				{
					OFFSET 0.524587 -53.427383 -12.948300
					CHANNELS 3 Xrotation Yrotation Zrotation
					JOINT RightToeBase
					{
						OFFSET -0.192200 -14.009700 16.364100
						CHANNELS 3 Xrotation Yrotation Zrotation
						JOINT RightToe_End
						{
							OFFSET 1.784700 -0.561700 9.474800
							CHANNELS 3 Xrotation Yrotation Zrotation
							End Site
							{
								OFFSET 0 0 0
							}
						}
					}
				}
			}
		}
	}
	JOINT Spine_virtual
	{
		OFFSET 0.000000 0.000000 0.000000
		CHANNELS 3 Xrotation Yrotation Zrotation
		JOINT Spine
		{
			OFFSET 0.072000 7.257294 -0.789700
			CHANNELS 3 Xrotation Yrotation Zrotation
			JOINT Spine1
			{
				OFFSET 0.000000 12.508769 -0.658067
				CHANNELS 3 Xrotation Yrotation Zrotation
				JOINT Spine1_split
				{
					OFFSET 0.000000 12.508769 -0.658067
					CHANNELS 3 Xrotation Yrotation Zrotation
					JOINT Spine2
					{
						OFFSET 0.000000 12.508769 -0.658067
						CHANNELS 3 Xrotation Yrotation Zrotation
						JOINT Neck_virtual
						{
							OFFSET 0.000000 0.000000 0.000000
							CHANNELS 3 Xrotation Yrotation Zrotation
							JOINT Neck
							{
								OFFSET 0.000000 14.033295 7.520400
								CHANNELS 3 Xrotation Yrotation Zrotation
								JOINT Head
								{
									OFFSET 0.000000 8.198502 5.703100
									CHANNELS 3 Xrotation Yrotation Zrotation
									JOINT HeadTop_End
									{
										OFFSET 0.000000 17.760803 13.332701
										CHANNELS 3 Xrotation Yrotation Zrotation
										End Site
										{
											OFFSET 0 0 0
										}
									}
								}
							}
						}
						JOINT LeftShoulder_virtual
						{
							OFFSET 0.000000 0.000000 0.000000
							CHANNELS 3 Xrotation Yrotation Zrotation
							JOINT LeftShoulder
							{
								OFFSET 6.292450 5.785301 -0.669000
								CHANNELS 3 Xrotation Yrotation Zrotation
								JOINT LeftShoulder_split
								{
									OFFSET 6.292450 5.785301 -0.669000
									CHANNELS 3 Xrotation Yrotation Zrotation
									JOINT LeftArm
									{
										OFFSET 13.907140 -6.093903 1.965100
										CHANNELS 3 Xrotation Yrotation Zrotation
										JOINT LeftForeArm
										{
											OFFSET 34.140198 0.000000 0.000000
											CHANNELS 3 Xrotation Yrotation Zrotation
											JOINT LeftHand
											{
												OFFSET 40.960209 0.000000 0.000000
												CHANNELS 3 Xrotation Yrotation Zrotation
												End Site
												{
													OFFSET 0 0 0
												}
											}
										}
									}
								}
							}
						}
						JOINT RightShoulder_virtual
						{
							OFFSET 0.000000 0.000000 0.000000
							CHANNELS 3 Xrotation Yrotation Zrotation
							JOINT RightShoulder
							{
								OFFSET -6.292450 5.785301 -0.669000
								CHANNELS 3 Xrotation Yrotation Zrotation
								JOINT RightShoulder_split
								{
									OFFSET -6.292450 5.785301 -0.669000
									CHANNELS 3 Xrotation Yrotation Zrotation
									JOINT RightArm
									{
										OFFSET -13.907140 -6.093903 1.965100
										CHANNELS 3 Xrotation Yrotation Zrotation
										JOINT RightForeArm
										{
											OFFSET -34.140198 0.000000 0.000000
											CHANNELS 3 Xrotation Yrotation Zrotation
											JOINT RightHand
											{
												OFFSET -40.960209 0.000000 0.000000
												CHANNELS 3 Xrotation Yrotation Zrotation
												End Site
												{
													OFFSET 0 0 0
												}
											}
										}
									}
								}
							}
						}
					}
				}
			}
		}
	}
}
MOTION
Frames: 5
Frame Time: 0.03333333
-0.941946 113.376999 -1.263382 0.000000 0.000000 0.000000 2.870334 -30.317120 -0.177690 -20.860718 13.390205 14.683768 19.781520 9.173574 -3.202030 -2.199253 -4.672552 -1.696196 0.260570 0.031758 -1.184633 0.000000 0.000000 0.000000 2.970914 -30.115902 0.081464 -7.272262 -3.188496 -7.021249 11.516973 4.256239 0.994914 -12.588545 2.095408 4.994686 -4.007391 -0.028071 -0.714458 0.000000 0.000000 0.000000 3.486244 -27.615836 -0.599032 6.018431 -1.403244 0.211090 2.177557 -1.122297 2.708690 0.416066 -4.336296 0.455343 0.000000 0.000000 0.000000 2.580864 -0.392027 2.590664 -6.598574 18.243483 -7.751887 -2.027519 22.672903 4.456969 0.000000 0.000000 0.000000 2.524794 0.000887 2.809235 0.901055 -10.214449 -3.689467 0.410787 -4.272287 -1.814857 -61.225112 -0.414276 -34.605632 22.596199 -63.896065 23.796680 0.000000 0.000000 0.000000 2.206266 -0.602468 2.249526 3.774771 7.716755 7.707965 -0.826822 -3.725381 1.794579 -1.537234 -0.661331 61.205195 16.196846 14.505192 -7.603625 0.000000 0.000000 0.000000 
-0.670605 113.087158 -1.003826 0.000000 0.000000 0.000000 2.611795 -29.664710 -0.313627 -21.448292 14.716561 14.872360 20.088329 8.943193 -3.112031 -2.658353 -5.114398 -1.922938 0.084315 -0.019680 -1.077160 0.000000 0.000000 0.000000 2.988837 -29.113172 0.055133 -7.105113 -2.834780 -7.114915 11.420696 3.774027 0.886112 -12.687166 1.588679 6.141525 -4.903880 -0.095396 -0.746497 0.000000 0.000000 0.000000 3.028870 -25.859410 -0.335911 5.731699 -1.053745 0.154092 2.370582 -0.900904 2.642969 -1.013712 -1.647270 0.401259 0.000000 0.000000 0.000000 2.302355 -0.274265 2.390691 -6.433589 17.184742 -7.345356 -2.930149 22.027749 4.911283 0.000000 0.000000 0.000000 2.635932 0.206934 2.696725 0.487056 -8.898532 -4.109538 -0.718741 -2.419626 -2.515293 -60.346415 2.501784 -33.955473 23.715923 -64.247225 24.589110 0.000000 0.000000 0.000000 2.125023 -0.392811 2.109828 3.771686 7.968297 8.178648 -0.807318 -3.757629 1.056239 -0.549707 -0.392346 60.575110 16.650811 15.337579 -7.809603 0.000000 0.000000 0.000000 
-0.556588 112.489685 -0.231865 0.000000 0.000000 0.000000 2.337971 -26.580089 -0.214507 -22.359908 14.889165 14.548656 21.270194 8.344948 -3.102119 -3.120968 -6.090836 -2.036047 -0.281791 -0.088127 -0.811969 0.000000 0.000000 0.000000 2.919670 -25.437298 0.093267 -6.191479 -3.367841 -7.226195 12.301797 2.033506 0.765253 -14.169226 -0.110757 6.547672 -4.116695 -0.204040 -0.532440 0.000000 0.000000 0.000000 2.806661 -22.217092 0.065543 5.194466 -0.263821 0.256535 2.664712 -0.308755 2.494336 -1.791678 0.114376 0.377350 0.000000 0.000000 0.000000 2.210764 0.190457 2.162442 -6.961634 14.661033 -6.719523 -3.685175 19.173936 4.715163 0.000000 0.000000 0.000000 2.773420 0.685943 2.428006 -0.037917 -6.861229 -4.729599 -1.284311 -1.371667 -2.282868 -61.671711 7.709124 -32.447319 25.082364 -67.146422 25.336146 0.000000 0.000000 0.000000 2.062075 0.162187 1.920559 3.832614 8.565142 8.937313 -0.856320 -3.475594 0.278564 1.019790 -1.471578 60.218800 17.794439 17.278666 -8.579728 0.000000 0.000000 0.000000 
-0.472169 111.858536 0.941673 0.000000 0.000000 0.000000 2.110626 -21.265217 0.052707 -23.148179 13.715461 13.536082 22.713960 7.470783 -3.075881 -3.253421 -7.455719 -2.057937 -0.770799 -0.158659 -0.424925 0.000000 0.000000 0.000000 2.807574 -19.703492 0.238173 -4.822167 -4.681182 -7.432625 13.771474 -0.650475 0.717206 -16.440467 -2.505981 6.445042 -2.355798 -0.265152 -0.162647 0.000000 0.000000 0.000000 2.887637 -17.213327 0.493022 4.391386 0.948939 0.459999 3.021887 0.631560 2.196483 -1.377140 0.819748 0.321965 0.000000 0.000000 0.000000 2.306286 1.012894 1.847239 -8.054140 10.786324 -5.750055 -4.193000 14.360826 3.857308 0.000000 0.000000 0.000000 2.940333 1.461654 2.028199 -0.599115 -4.375572 -5.335049 -0.776681 -1.750006 -0.837692 -64.841868 13.226544 -30.285175 26.592857 -71.839356 25.930671 0.000000 0.000000 0.000000 2.065474 1.053954 1.622562 3.902374 9.333226 9.996177 -1.074847 -3.131947 -0.317774 2.763120 -3.600393 60.176118 19.392565 19.584008 -9.752677 0.000000 0.000000 0.000000 
-0.293726 111.466118 2.313148 0.000000 0.000000 0.000000 1.862112 -14.437037 0.360527 -23.393967 11.005081 11.850636 23.775054 6.563117 -2.947315 -2.864849 -8.945130 -1.870830 -1.202139 -0.230611 -0.015202 0.000000 0.000000 0.000000 2.702370 -12.573410 0.475191 -3.226912 -6.384254 -7.851255 15.738643 -3.490811 0.895108 -18.456472 -4.750581 6.545318 -1.302758 -0.227842 0.288648 0.000000 0.000000 0.000000 3.116912 -11.311669 0.832760 3.288773 2.527461 0.698910 3.345888 1.878824 1.722808 -0.199050 0.953392 0.523093 0.000000 0.000000 0.000000 2.594991 2.167075 1.418912 -9.522539 5.662461 -4.200557 -4.363935 8.121062 2.379498 0.000000 0.000000 0.000000 3.106898 2.541482 1.529795 -1.104787 -1.699624 -5.860661 0.217855 -2.755146 1.056569 -68.876597 17.822515 -27.812723 27.088288 -77.216129 25.339495 0.000000 0.000000 0.000000 2.162314 2.243386 1.207785 3.894271 10.087119 11.317547 -1.769738 -2.727405 -0.564652 4.406852 -6.117547 60.241927 21.129673 21.450131 -11.154277 0.000000 0.000000 0.000000 
